<svg width="367" height="388" viewBox="0 0 367 388" fill="none" xmlns="http://www.w3.org/2000/svg">
<g clip-path="url(#clip0_88_644)">
<path d="M390 385.955H126.822V387.149H390V385.955Z" fill="#3F3D56"/>
<path d="M340.885 182.8C341.391 183.427 341.767 184.158 341.988 184.947C342.209 185.737 342.27 186.566 342.167 187.381C342.064 188.197 341.8 188.98 341.391 189.682C340.982 190.383 340.438 190.986 339.793 191.451L312.556 211.133L300.563 219.548C299.882 220.026 299.056 220.22 298.246 220.093C297.436 219.965 296.7 219.525 296.182 218.858C295.88 218.469 295.661 218.016 295.542 217.529C295.422 217.043 295.404 216.535 295.49 216.041C295.575 215.547 295.761 215.078 296.035 214.666C296.31 214.255 296.665 213.912 297.078 213.659L308.695 206.56L328.968 186.239L315.935 171.506L325.589 163.885L340.885 182.8Z" fill="#A0616A"/>
<path d="M276.836 368.116H270.174L266.217 310.2L283.111 309.692L276.836 368.116Z" fill="#A0616A"/>
<path d="M277.319 386.914C275.542 387.767 274.054 380.853 272.556 382.403C268.364 386.739 261.946 387.683 256.351 385.79L258.309 385.767C257.972 385.653 257.66 385.467 257.392 385.223C257.124 384.978 256.907 384.678 256.752 384.342C256.598 384.006 256.51 383.641 256.494 383.268C256.477 382.895 256.533 382.523 256.658 382.173C256.807 381.755 257.05 381.381 257.367 381.084C257.683 380.786 258.064 380.574 258.476 380.466L262.933 379.293L269.932 366.338L277.078 365.83C278.671 367.968 279.782 370.457 280.329 373.112C280.876 375.767 280.844 378.517 280.235 381.157C279.586 383.943 278.585 386.305 277.319 386.914Z" fill="#2F2E41"/>
<path d="M321.197 368.116H314.535L310.578 310.2L327.955 306.644L321.197 368.116Z" fill="#A0616A"/>
<path d="M321.68 386.914C319.904 387.767 318.415 380.853 316.917 382.403C312.725 386.739 306.307 387.683 300.712 385.79L302.67 385.767C302.333 385.653 302.021 385.467 301.753 385.223C301.485 384.978 301.268 384.678 301.113 384.342C300.959 384.006 300.871 383.641 300.855 383.268C300.838 382.895 300.894 382.523 301.019 382.173C301.168 381.755 301.411 381.381 301.728 381.084C302.044 380.786 302.425 380.574 302.837 380.466L307.294 379.293L314.293 366.338L321.921 365.322L322.114 365.654C323.589 368.155 324.539 370.959 324.903 373.878C325.266 376.796 325.034 379.763 324.222 382.58C323.587 384.719 322.724 386.412 321.68 386.914Z" fill="#2F2E41"/>
<path d="M328.752 165.195C322.625 166.092 318.383 169.624 316.655 176.669L305.393 154.784C304.726 153.393 304.556 151.795 304.917 150.284C305.277 148.772 306.143 147.448 307.355 146.554C308.642 145.605 310.225 145.209 311.78 145.449C313.335 145.689 314.744 146.545 315.719 147.842L328.752 165.195Z" fill="#6C63FF"/>
<path d="M340.553 304.104C313.17 316.855 285.147 318.424 256.563 310.2C267.001 267.591 279.326 229.064 279.25 197.416L307.247 194.875L311.557 202.068C321.785 219.133 328.844 238.085 332.362 257.918L340.553 304.104Z" fill="#2F2E41"/>
<path d="M294.696 131.879C302.694 131.879 309.177 125.055 309.177 116.638C309.177 108.22 302.694 101.396 294.696 101.396C286.699 101.396 280.215 108.22 280.215 116.638C280.215 125.055 286.699 131.879 294.696 131.879Z" fill="#A0616A"/>
<path d="M310.625 143.563L292.766 144.579L289.869 127.814L304.35 125.274L310.625 143.563Z" fill="#A0616A"/>
<path d="M308.695 197.416L289.128 197.996L279.25 199.448C274.401 182.59 270.319 165.77 280.215 151.692L291.8 139.499L309.177 138.991L309.408 139.13C312.167 140.794 314.306 143.398 315.471 146.512C316.637 149.627 316.759 153.066 315.819 156.264C311.507 171.013 308.737 184.941 308.695 197.416Z" fill="#FF7F63"/>
<path d="M278.767 244.663L277.553 262.121C277.488 263.056 277.105 263.935 276.473 264.596C275.841 265.257 275.003 265.655 274.114 265.717C273.602 265.753 273.088 265.677 272.606 265.492C272.123 265.307 271.683 265.019 271.312 264.645C270.942 264.272 270.649 263.821 270.453 263.321C270.257 262.822 270.162 262.285 270.175 261.745L270.561 244.663L282.629 196.399L283.111 166.933L296.627 166.425L295.662 200.464L278.767 244.663Z" fill="#A0616A"/>
<path d="M298.075 168.965C292.345 166.513 286.993 167.334 282.146 172.522L282.81 147.643C282.894 146.087 283.507 144.615 284.538 143.497C285.569 142.378 286.949 141.688 288.424 141.553C289.989 141.41 291.548 141.902 292.78 142.929C294.012 143.956 294.824 145.44 295.05 147.076L298.075 168.965Z" fill="#FF7F63"/>
<path d="M325.348 184.461H280.939C291.299 155.588 294.64 128.728 280.939 105.715C281.174 98.8026 289.598 92.8104 296.139 93.4724C303.865 94.2542 314.247 100.229 315.694 108.255L325.348 184.461Z" fill="#2F2E41"/>
<path d="M183.819 92.2033H181.794V33.8015C181.794 29.3626 180.963 24.9672 179.349 20.8662C177.735 16.7652 175.369 13.039 172.387 9.9002C169.405 6.76144 165.865 4.27165 161.968 2.57297C158.072 0.874298 153.895 9.5861e-06 149.678 2.28883e-05H32.1159C27.8984 1.30867e-05 23.7222 0.874308 19.8257 2.57299C15.9292 4.27166 12.3888 6.76146 9.40658 9.90021C6.42434 13.039 4.0587 16.7652 2.44473 20.8662C0.830755 24.9672 5.63787e-05 29.3626 6.10352e-05 33.8015V354.199C5.77091e-05 358.637 0.830754 363.033 2.44473 367.134C4.0587 371.235 6.42434 374.961 9.40658 378.1C12.3888 381.239 15.9292 383.728 19.8257 385.427C23.7222 387.126 27.8984 388 32.1159 388H149.678C153.895 388 158.072 387.126 161.968 385.427C165.865 383.728 169.405 381.239 172.387 378.1C175.369 374.961 177.735 371.235 179.349 367.134C180.963 363.033 181.794 358.638 181.794 354.199V133.775H183.819V92.2033Z" fill="#3F3D56"/>
<path d="M150.974 8.79398H135.628C136.334 10.615 136.603 12.5907 136.412 14.547C136.222 16.5034 135.577 18.3804 134.535 20.0127C133.492 21.6449 132.085 22.9824 130.436 23.9072C128.787 24.832 126.947 25.3158 125.078 25.316H57.7284C55.8598 25.3158 54.02 24.832 52.3709 23.9072C50.7218 22.9824 49.3142 21.6449 48.2719 20.0127C47.2296 18.3804 46.5848 16.5034 46.3941 14.547C46.2034 12.5907 46.4728 10.615 47.1785 8.79398H32.8456C29.696 8.79398 26.5772 9.44689 23.6674 10.7154C20.7576 11.984 18.1136 13.8433 15.8865 16.1873C13.6594 18.5313 11.8928 21.314 10.6875 24.3766C9.48218 27.4391 8.86182 30.7216 8.86182 34.0365V353.964C8.86182 357.278 9.48217 360.561 10.6875 363.623C11.8928 366.686 13.6594 369.469 15.8865 371.813C18.1136 374.157 20.7576 376.016 23.6674 377.285C26.5772 378.553 29.696 379.206 32.8456 379.206H150.974C154.123 379.206 157.242 378.553 160.152 377.285C163.062 376.016 165.706 374.157 167.933 371.813C170.16 369.469 171.927 366.686 173.132 363.623C174.337 360.561 174.957 357.278 174.957 353.964V34.0364C174.957 27.3417 172.431 20.9212 167.933 16.1873C163.435 11.4534 157.335 8.79397 150.974 8.79398Z" fill="white"/>
<path d="M154.215 58.7689H29.6048V171.259H154.215V58.7689Z" fill="#E6E6E6"/>
<path d="M66.5825 194.717C71.6181 194.717 75.7003 190.42 75.7003 185.121C75.7003 179.821 71.6181 175.524 66.5825 175.524C61.5469 175.524 57.4647 179.821 57.4647 185.121C57.4647 190.42 61.5469 194.717 66.5825 194.717Z" fill="#6C63FF"/>
<path d="M71.1415 184.321H67.3425V180.323H65.8228V184.321H62.0237V185.92H65.8228V189.919H67.3425V185.92H71.1415V184.321Z" fill="white"/>
<path d="M114.704 194.717C119.74 194.717 123.822 190.42 123.822 185.121C123.822 179.821 119.74 175.524 114.704 175.524C109.669 175.524 105.586 179.821 105.586 185.121C105.586 190.42 109.669 194.717 114.704 194.717Z" fill="#6C63FF"/>
<path d="M119.263 185.92V184.321H110.145V185.92H119.263Z" fill="white"/>
<path d="M96.5571 72.7981H86.7098C86.3635 72.7981 86.0315 72.9428 85.7866 73.2005C85.5418 73.4582 85.4042 73.8077 85.4042 74.1722V78.7213C85.4042 79.0857 85.5418 79.4352 85.7866 79.6929C86.0315 79.9506 86.3635 80.0954 86.7098 80.0954H88.3416V86.9115H94.9252V80.0954H96.5571C96.9033 80.0954 97.2354 79.9506 97.4803 79.6929C97.7251 79.4352 97.8626 79.0857 97.8626 78.7213V74.1722C97.8626 73.8077 97.7251 73.4582 97.4803 73.2005C97.2354 72.9429 96.9034 72.7981 96.5571 72.7981Z" fill="#6C63FF"/>
<path d="M106.42 114.432C100.389 105.144 97.3064 94.0854 97.6127 82.8404C97.6182 82.581 97.5382 82.3275 97.3863 82.1231C97.2344 81.9187 97.0199 81.7759 96.7793 81.719V79.7533H86.3792V81.6917H86.2359C86.0958 81.6919 85.9571 81.7211 85.8277 81.7777C85.6983 81.8344 85.5807 81.9173 85.4818 82.0217C85.3828 82.1261 85.3043 82.25 85.2509 82.3864C85.1974 82.5227 85.17 82.6688 85.1702 82.8163C85.1702 82.8436 85.1712 82.8708 85.1731 82.898C85.9924 94.9188 83.2258 105.699 76.873 115.238C76.5075 115.786 76.3207 116.444 76.3408 117.114L77.478 154.137C77.5053 154.962 77.8346 155.745 78.3971 156.322C78.9597 156.898 79.712 157.223 80.4971 157.23H104.02C104.814 157.223 105.575 156.89 106.139 156.302C106.703 155.714 107.027 154.918 107.041 154.082L107.48 118.136C107.493 116.816 107.123 115.524 106.42 114.432Z" fill="#3F3D56"/>
<path opacity="0.2" d="M94.5043 74.2804C94.5043 75.0666 94.2075 75.8206 93.6793 76.3766C93.1511 76.9325 92.4346 77.2449 91.6876 77.2449C90.9406 77.2449 90.2241 76.9325 89.6959 76.3766C89.1677 75.8206 88.8709 75.0666 88.8709 74.2804" fill="black"/>
<path d="M102.696 126.73H99.8479C99.576 124.872 98.6815 123.179 97.3262 121.955C95.9709 120.732 94.2444 120.059 92.4589 120.059C90.6734 120.059 88.9468 120.732 87.5916 121.955C86.2363 123.179 85.3418 124.872 85.0698 126.73H82.2211C81.9181 126.73 81.6185 126.799 81.3432 126.932C81.0678 127.065 80.823 127.259 80.6257 127.501C80.4283 127.744 80.2831 128.028 80.1998 128.334C80.1166 128.641 80.0973 128.963 80.1434 129.278L83.2375 150.446H101.004L104.763 129.35C104.82 129.03 104.809 128.701 104.731 128.387C104.654 128.072 104.511 127.779 104.314 127.529C104.117 127.279 103.87 127.078 103.59 126.939C103.31 126.801 103.005 126.73 102.696 126.73V126.73Z" fill="#6C63FF"/>
<path d="M154.215 217.108H29.6048V329.599H154.215V217.108Z" fill="#E6E6E6"/>
<path d="M66.5825 353.056C71.6181 353.056 75.7003 348.76 75.7003 343.46C75.7003 338.16 71.6181 333.864 66.5825 333.864C61.5469 333.864 57.4647 338.16 57.4647 343.46C57.4647 348.76 61.5469 353.056 66.5825 353.056Z" fill="#6C63FF"/>
<path d="M71.1415 342.661H67.3425V338.662H65.8228V342.661H62.0237V344.26H65.8228V348.258H67.3425V344.26H71.1415V342.661Z" fill="white"/>
<path d="M114.704 353.056C119.74 353.056 123.822 348.76 123.822 343.46C123.822 338.16 119.74 333.864 114.704 333.864C109.669 333.864 105.586 338.16 105.586 343.46C105.586 348.76 109.669 353.056 114.704 353.056Z" fill="#6C63FF"/>
<path d="M119.263 344.26V342.66H110.145V344.26H119.263Z" fill="white"/>
<path d="M116.441 297.023L116.509 297.023C118.855 297.044 121.153 296.32 123.102 294.946C125.052 293.572 126.562 291.611 127.437 289.319C130.193 281.984 130.839 273.957 129.293 266.239C127.747 258.52 124.078 251.451 118.742 245.911C113.407 240.371 106.641 236.605 99.2875 235.082C91.9336 233.559 84.3166 234.347 77.3849 237.347C70.4532 240.347 64.513 245.426 60.304 251.953C56.095 258.48 53.8032 266.166 53.7138 274.053C53.6245 281.941 55.7416 289.682 59.8016 296.312C63.8615 302.943 69.6849 308.17 76.5467 311.343C78.6794 312.337 81.0477 312.629 83.3409 312.182C85.6342 311.734 87.7454 310.568 89.3978 308.835C92.9417 305.085 97.1559 302.111 101.797 300.084C106.439 298.057 111.415 297.016 116.441 297.023Z" fill="white"/>
<path d="M96.8157 284.852C103.783 284.852 109.432 278.907 109.432 271.574C109.432 264.24 103.783 258.295 96.8157 258.295C89.8481 258.295 84.1997 264.24 84.1997 271.574C84.1997 278.907 89.8481 284.852 96.8157 284.852Z" fill="#F9A825"/>
</g>
<defs>
<clipPath id="clip0_88_644">
<rect width="390" height="388" fill="white"/>
</clipPath>
</defs>
</svg>
