<svg width="352" height="379" viewBox="0 0 352 379" fill="none" xmlns="http://www.w3.org/2000/svg">
<g clip-path="url(#clip0_88_677)">
<path d="M235.379 163.889L231.662 173.455L208.865 206.799C208.865 206.799 193.254 225.384 201.927 226.477C210.6 227.57 216.299 209.258 216.299 209.258L243.06 180.014L246.034 166.622L235.379 163.889Z" fill="#9F616A"/>
<path d="M246.777 125.078L243.185 126.187C243.185 126.187 227.057 173.445 228.544 179.185C230.03 184.924 236.721 192.031 239.694 191.484C242.668 190.937 246.777 125.078 246.777 125.078Z" fill="#FF7F63"/>
<path d="M296.965 367.939C296.965 367.939 295.388 376.658 300.128 373.168C304.869 369.679 307.341 362.932 307.341 362.932L296.965 367.939Z" fill="#2F2E41"/>
<path d="M240.83 171.268C240.83 171.268 190.529 366.959 208.37 372.699C226.21 378.438 252.476 372.152 252.229 368.326C251.981 364.5 247.521 288.792 247.521 288.792C247.521 288.792 273.539 389.371 305.751 365.866C337.964 342.361 330.778 337.988 327.805 336.348C324.831 334.709 279.981 256.815 280.229 242.329C280.477 227.844 279.733 182.474 274.282 175.641L240.83 171.268Z" fill="#2F2E41"/>
<path d="M351.79 379H46.5067V377.72H352L351.79 379Z" fill="#3F3D56"/>
<path d="M272.78 101.692C270.844 99.761 269.637 97.0985 269.398 94.2322C269.158 91.3659 269.904 88.505 271.487 86.2166C271.277 86.4333 271.073 86.6583 270.876 86.8975C269.028 89.1561 268.067 92.1321 268.207 95.1713C268.347 98.2105 269.575 101.064 271.621 103.105C273.668 105.146 276.365 106.207 279.121 106.055C281.876 105.903 284.464 104.551 286.316 102.295C286.512 102.056 286.694 101.808 286.869 101.557C284.963 103.524 282.458 104.629 279.848 104.654C277.238 104.679 274.716 103.622 272.78 101.692Z" fill="#2F2E41"/>
<path d="M271.804 104.443C283.642 104.443 293.238 93.8586 293.238 80.8018C293.238 67.7449 283.642 57.1603 271.804 57.1603C259.966 57.1603 250.37 67.7449 250.37 80.8018C250.37 93.8586 259.966 104.443 271.804 104.443Z" fill="#2F2E41"/>
<path d="M214.069 371.879C214.069 371.879 208.369 378.165 214.069 378.165C219.768 378.165 225.219 374.066 225.219 374.066L214.069 371.879Z" fill="#2F2E41"/>
<path d="M258.176 95.5606C258.176 95.5606 261.892 112.506 259.167 115.786C256.441 119.065 250.494 121.525 250.494 121.525L251.485 152.136C251.485 152.136 262.884 147.763 263.379 147.217C263.875 146.67 274.034 128.905 274.034 128.905L283.946 118.519C283.946 118.519 268.831 110.593 273.291 96.9272C277.751 83.2615 258.176 95.5606 258.176 95.5606Z" fill="#9F616A"/>
<path d="M280.063 89.9111C281.203 82.1633 276.432 74.8631 269.408 73.6058C262.383 72.3485 255.765 77.6102 254.625 85.358C253.485 93.1059 258.255 100.406 265.28 101.663C272.304 102.921 278.923 97.6589 280.063 89.9111Z" fill="#9F616A"/>
<path d="M274.282 175.641C274.282 175.641 279.981 154.869 282.707 152.136C285.433 149.403 292.123 123.712 292.123 123.712C292.123 123.712 287.91 117.426 284.441 117.426C280.972 117.426 277.751 118.792 273.786 122.892C271.919 124.822 268.514 126.947 265.433 128.654C264.34 129.27 263.146 129.64 261.922 129.742C260.697 129.843 259.467 129.675 258.302 129.246C257.138 128.817 256.062 128.137 255.139 127.244C254.215 126.352 253.462 125.266 252.923 124.049C252.307 122.605 252.105 121.222 252.724 120.159C252.724 120.159 243.556 122.892 243.06 126.718C242.565 130.545 243.06 138.471 242.317 140.11C241.574 141.75 239.343 144.21 240.335 154.596C241.326 164.982 239.3 178.115 239.3 178.115C248.556 187.857 261.38 181.843 274.282 175.641Z" fill="#FF7F63"/>
<path d="M267.22 83.1249C273.241 83.1249 278.123 79.4539 278.123 74.9255C278.123 70.3972 273.241 66.7262 267.22 66.7262C261.198 66.7262 256.317 70.3972 256.317 74.9255C256.317 79.4539 261.198 83.1249 267.22 83.1249Z" fill="#2F2E41"/>
<path d="M285.804 74.3789C291.552 74.3789 296.212 69.2395 296.212 62.8998C296.212 56.5601 291.552 51.4207 285.804 51.4207C280.057 51.4207 275.397 56.5601 275.397 62.8998C275.397 69.2395 280.057 74.3789 285.804 74.3789Z" fill="#2F2E41"/>
<path d="M293.238 71.0992C290.628 71.0988 288.114 70.0168 286.194 68.0679C284.273 66.1189 283.087 63.4451 282.87 60.5767C282.846 60.8924 282.831 61.2108 282.831 61.5333C282.831 64.5766 283.927 67.4952 285.878 69.6474C287.829 71.7996 290.474 73.0094 293.234 73.0107C295.993 73.012 298.639 71.8047 300.592 69.6543C302.544 67.5039 303.642 64.5863 303.645 61.543V61.5333C303.645 61.2108 303.63 60.8924 303.606 60.5767C303.389 63.4451 302.203 66.1189 300.282 68.0679C298.362 70.0168 295.848 71.0988 293.238 71.0992Z" fill="#2F2E41"/>
<path d="M268.829 246.661H265.367L258.448 313.222L281.267 312.378L268.829 246.661Z" fill="#FF7F63"/>
<path opacity="0.2" d="M268.829 246.661H265.367L258.448 313.222L281.267 312.378L268.829 246.661Z" fill="black"/>
<path d="M267.675 245.81L263.447 312.8L315.237 317.041L319.465 251.746L267.675 245.81Z" fill="#FF7F63"/>
<path opacity="0.2" d="M285.112 252.597C285.538 252.597 285.883 252.216 285.883 251.746C285.883 251.277 285.538 250.896 285.112 250.896C284.686 250.896 284.341 251.277 284.341 251.746C284.341 252.216 284.686 252.597 285.112 252.597Z" fill="black"/>
<path opacity="0.2" d="M301.256 254.714C301.682 254.714 302.028 254.333 302.028 253.864C302.028 253.394 301.682 253.013 301.256 253.013C300.831 253.013 300.485 253.394 300.485 253.864C300.485 254.333 300.831 254.714 301.256 254.714Z" fill="black"/>
<path d="M301.448 253.87H301.065C301.065 253.688 301.336 235.804 292.025 234.156C290.19 233.833 288.691 234.291 287.568 235.516C283.724 239.722 285.314 251.6 285.33 251.717L284.952 251.781C284.883 251.283 283.32 239.57 287.303 235.217C288.515 233.886 290.132 233.387 292.089 233.733C301.724 235.434 301.453 253.688 301.448 253.87Z" fill="#3F3D56"/>
<path d="M292.866 161.429L291.627 176.734L294.105 222.651C294.105 222.651 299.805 245.882 291.132 245.336C282.459 244.789 285.68 221.011 285.68 221.011L281.716 167.715L292.866 161.429Z" fill="#9F616A"/>
<path d="M285.68 119.885L292.123 123.712C292.123 123.712 300.796 188.729 295.84 195.016C290.884 201.302 280.725 203.761 280.229 201.302C279.733 198.842 277.999 148.856 277.999 148.856L285.68 119.885Z" fill="#FF7F63"/>
<path d="M35.077 0H27.8506C27.5966 0 27.3529 0.111333 27.1732 0.309509C26.9935 0.507685 26.8926 0.776472 26.8926 1.05674V4.55526C26.8926 4.83552 26.9935 5.10431 27.1732 5.30248C27.3529 5.50066 27.5966 5.61199 27.8506 5.61199H29.0482V10.854H33.8795V5.61199H35.077C35.3311 5.61199 35.5747 5.50066 35.7544 5.30248C35.9341 5.10431 36.035 4.83552 36.035 4.55526V1.05674C36.035 0.776478 35.9341 0.507698 35.7544 0.309523C35.5748 0.111347 35.3311 9.33348e-06 35.077 0Z" fill="#6C63FF"/>
<path d="M42.3149 32.0184C37.8893 24.8756 35.6268 16.371 35.8516 7.72309C35.8557 7.52355 35.7969 7.32863 35.6855 7.17142C35.574 7.01421 35.4166 6.90439 35.24 6.86064V5.34895H27.6081V6.83964H27.5029C27.4001 6.83979 27.2983 6.86227 27.2033 6.90582C27.1083 6.94936 27.0221 7.0131 26.9495 7.09342C26.8769 7.17373 26.8193 7.26903 26.78 7.37388C26.7408 7.47874 26.7207 7.59109 26.7208 7.70452C26.7209 7.7255 26.7216 7.74645 26.723 7.76739C27.3242 17.012 25.2939 25.3023 20.6321 32.6384C20.3638 33.06 20.2268 33.5662 20.2415 34.081L21.076 62.5536C21.0961 63.1887 21.3377 63.7907 21.7505 64.2339C22.1633 64.6772 22.7154 64.9274 23.2915 64.9325H40.5538C41.1365 64.9273 41.6943 64.6713 42.1084 64.2191C42.5225 63.7669 42.7601 63.1542 42.7707 62.5116L43.0923 34.8671C43.1018 33.8524 42.8306 32.8587 42.3149 32.0184Z" fill="#3C3C3C" fill-opacity="0.79"/>
<path d="M39.5822 41.4761H24.5567C24.3343 41.4761 24.1145 41.5292 23.9124 41.6316C23.7103 41.7341 23.5307 41.8835 23.3859 42.0697C23.2411 42.2559 23.1345 42.4745 23.0734 42.7103C23.0123 42.9462 22.9982 43.1939 23.032 43.4364L25.3026 59.7151H38.3405L41.0984 43.4912C41.1402 43.2455 41.1324 42.9926 41.0755 42.7506C41.0186 42.5086 40.914 42.2834 40.7693 42.091C40.6245 41.8986 40.4431 41.7438 40.2379 41.6375C40.0328 41.5312 39.8089 41.4761 39.5822 41.4761V41.4761Z" fill="#6C63FF"/>
<path d="M115.52 85.2932H108.293C108.039 85.2932 107.796 85.4045 107.616 85.6027C107.436 85.8009 107.335 86.0697 107.335 86.3499V89.8484C107.335 90.1287 107.436 90.3975 107.616 90.5957C107.796 90.7938 108.039 90.9052 108.293 90.9052H109.491V96.1472H114.322V90.9052H115.52C115.774 90.9052 116.017 90.7938 116.197 90.5957C116.377 90.3975 116.478 90.1287 116.478 89.8484V86.3499C116.478 86.0697 116.377 85.8009 116.197 85.6027C116.017 85.4045 115.774 85.2932 115.52 85.2932Z" fill="#6C63FF"/>
<path d="M122.758 117.312C118.332 110.169 116.07 101.664 116.294 93.0163C116.298 92.8167 116.24 92.6218 116.128 92.4646C116.017 92.3074 115.859 92.1976 115.683 92.1538V90.6421H108.051V92.1328H107.946C107.843 92.133 107.741 92.1555 107.646 92.199C107.551 92.2425 107.465 92.3063 107.392 92.3866C107.32 92.4669 107.262 92.5622 107.223 92.6671C107.184 92.7719 107.163 92.8843 107.164 92.9977C107.164 93.0187 107.164 93.0396 107.166 93.0606C107.767 102.305 105.737 110.595 101.075 117.932C100.807 118.353 100.67 118.859 100.684 119.374L101.519 147.847C101.539 148.482 101.78 149.084 102.193 149.527C102.606 149.97 103.158 150.221 103.734 150.226H120.997C121.579 150.22 122.137 149.964 122.551 149.512C122.965 149.06 123.203 148.447 123.213 147.805L123.535 120.16C123.545 119.146 123.273 118.152 122.758 117.312Z" fill="#3C3C3C" fill-opacity="0.79"/>
<path d="M120.025 126.769H104.999C104.777 126.769 104.557 126.822 104.355 126.925C104.153 127.027 103.974 127.177 103.829 127.363C103.684 127.549 103.577 127.768 103.516 128.004C103.455 128.239 103.441 128.487 103.475 128.73L105.745 145.008H118.783L121.541 128.784C121.583 128.539 121.575 128.286 121.518 128.044C121.461 127.802 121.357 127.577 121.212 127.384C121.067 127.192 120.886 127.037 120.681 126.931C120.476 126.824 120.252 126.769 120.025 126.769V126.769Z" fill="#6C63FF"/>
<path d="M24.9177 205.873H21.49C21.3694 205.873 21.2539 205.925 21.1686 206.019C21.0834 206.113 21.0355 206.241 21.0355 206.374V208.033C21.0355 208.166 21.0834 208.294 21.1686 208.388C21.2539 208.482 21.3694 208.535 21.49 208.535H22.058V211.021H24.3497V208.535H24.9177C25.0383 208.535 25.1539 208.482 25.2391 208.388C25.3243 208.294 25.3722 208.166 25.3722 208.033V206.374C25.3722 206.241 25.3243 206.114 25.2391 206.019C25.1539 205.925 25.0383 205.873 24.9177 205.873Z" fill="#E6E6E6"/>
<path d="M28.351 221.06C26.2517 217.672 25.1785 213.638 25.2852 209.536C25.2871 209.441 25.2592 209.349 25.2063 209.274C25.1535 209.2 25.0788 209.148 24.9951 209.127V208.41H21.3749V209.117H21.325C21.2762 209.117 21.2279 209.128 21.1829 209.148C21.1378 209.169 21.0969 209.199 21.0625 209.237C21.028 209.276 21.0007 209.321 20.9821 209.37C20.9635 209.42 20.954 209.473 20.954 209.527C20.954 209.537 20.9544 209.547 20.955 209.557C21.2892 213.743 20.2653 217.924 18.0659 221.355C17.9386 221.555 17.8736 221.795 17.8806 222.039L18.2764 235.545C18.2859 235.846 18.4006 236.131 18.5964 236.342C18.7922 236.552 19.0541 236.671 19.3274 236.673H27.5157C27.7921 236.671 28.0566 236.549 28.2531 236.335C28.4495 236.12 28.5622 235.83 28.5672 235.525L28.7198 222.412C28.7243 221.93 28.5956 221.459 28.351 221.06Z" fill="#F9A825"/>
<path d="M27.1725 226.025H19.3596V230.334H27.1725V226.025Z" fill="white"/>
<path d="M40.874 205.873H37.4463C37.3257 205.873 37.2102 205.925 37.1249 206.019C37.0397 206.113 36.9918 206.241 36.9918 206.374V208.033C36.9918 208.166 37.0397 208.294 37.1249 208.388C37.2102 208.482 37.3257 208.535 37.4463 208.535H38.0143V211.021H40.306V208.535H40.874C40.9946 208.535 41.1102 208.482 41.1954 208.388C41.2806 208.294 41.3285 208.166 41.3285 208.033V206.374C41.3285 206.308 41.3167 206.243 41.2939 206.182C41.2711 206.121 41.2376 206.066 41.1954 206.019C41.1532 205.973 41.1031 205.936 41.0479 205.911C40.9928 205.886 40.9337 205.873 40.874 205.873Z" fill="#E6E6E6"/>
<path d="M44.3073 221.06C42.2081 217.672 41.1349 213.638 41.2415 209.536C41.2434 209.441 41.2156 209.349 41.1627 209.274C41.1098 209.2 41.0352 209.148 40.9514 209.127V208.41H37.3312V209.117H37.2814C37.2326 209.117 37.1843 209.128 37.1392 209.148C37.0942 209.169 37.0533 209.199 37.0188 209.237C36.9844 209.276 36.9571 209.321 36.9385 209.37C36.9199 209.42 36.9103 209.473 36.9104 209.527C36.9104 209.537 36.9107 209.547 36.9114 209.557C37.2455 213.743 36.2217 217.924 34.0222 221.355C33.895 221.555 33.8299 221.795 33.8369 222.039L34.2328 235.545C34.2423 235.846 34.3569 236.131 34.5527 236.342C34.7486 236.552 35.0104 236.671 35.2837 236.673H43.472C43.7484 236.671 44.013 236.549 44.2094 236.335C44.4059 236.12 44.5186 235.83 44.5236 235.525L44.6761 222.412C44.6806 221.93 44.552 221.459 44.3073 221.06Z" fill="#F9A825"/>
<path d="M43.1289 226.025H35.3159V230.334H43.1289V226.025Z" fill="white"/>
<path d="M56.8304 205.873H53.4026C53.2821 205.873 53.1665 205.925 53.0812 206.019C52.996 206.113 52.9481 206.241 52.9481 206.374V208.033C52.9481 208.166 52.996 208.294 53.0812 208.388C53.1665 208.482 53.2821 208.535 53.4026 208.535H53.9706V211.021H56.2623V208.535H56.8304C56.9509 208.535 57.0665 208.482 57.1517 208.388C57.2369 208.294 57.2848 208.166 57.2848 208.033V206.374C57.2848 206.241 57.2369 206.113 57.1517 206.019C57.0665 205.925 56.9509 205.873 56.8304 205.873Z" fill="#E6E6E6"/>
<path d="M60.2636 221.06C58.1644 217.672 57.0912 213.638 57.1978 209.536C57.1997 209.441 57.1719 209.349 57.119 209.274C57.0661 209.2 56.9915 209.148 56.9077 209.127V208.41H53.2875V209.117H53.2377C53.1889 209.117 53.1406 209.128 53.0955 209.148C53.0505 209.169 53.0096 209.199 52.9751 209.237C52.9407 209.276 52.9134 209.321 52.8948 209.37C52.8761 209.42 52.8666 209.473 52.8667 209.527C52.8667 209.537 52.867 209.547 52.8677 209.557C53.2018 213.743 52.178 217.924 49.9785 221.355C49.8513 221.555 49.7863 221.795 49.7932 222.039L50.1891 235.545C50.1986 235.846 50.3132 236.131 50.509 236.342C50.7049 236.552 50.9667 236.671 51.24 236.673H59.4283C59.7047 236.671 59.9693 236.549 60.1657 236.335C60.3621 236.12 60.4749 235.83 60.4799 235.525L60.6324 222.412C60.6369 221.93 60.5083 221.459 60.2636 221.06Z" fill="#F9A825"/>
<path d="M59.0852 226.025H51.2722V230.334H59.0852V226.025Z" fill="white"/>
<path d="M102.966 172.876H95.7397C95.4856 172.876 95.2419 172.987 95.0622 173.186C94.8826 173.384 94.7816 173.653 94.7816 173.933V177.431C94.7816 177.712 94.8826 177.98 95.0622 178.179C95.2419 178.377 95.4856 178.488 95.7397 178.488H96.9372V183.73H101.768V178.488H102.966C103.092 178.488 103.216 178.461 103.333 178.408C103.449 178.355 103.554 178.277 103.643 178.179C103.732 178.08 103.803 177.964 103.851 177.836C103.899 177.708 103.924 177.57 103.924 177.431V173.933C103.924 173.653 103.823 173.384 103.643 173.186C103.464 172.987 103.22 172.876 102.966 172.876Z" fill="#6C63FF"/>
<path d="M110.204 204.895C105.778 197.752 103.516 189.247 103.741 180.599C103.745 180.4 103.686 180.205 103.574 180.048C103.463 179.89 103.306 179.78 103.129 179.737V178.225H95.4971V179.716H95.3919C95.2891 179.716 95.1873 179.738 95.0923 179.782C94.9973 179.825 94.9111 179.889 94.8385 179.97C94.7658 180.05 94.7083 180.145 94.669 180.25C94.6298 180.355 94.6097 180.467 94.6098 180.581C94.6098 180.602 94.6106 180.623 94.6119 180.643C95.2132 189.888 93.1829 198.178 88.5211 205.515C88.2528 205.936 88.1157 206.442 88.1305 206.957L88.965 235.43C88.985 236.065 89.2267 236.667 89.6395 237.11C90.0523 237.553 90.6044 237.804 91.1805 237.809H108.443C109.025 237.803 109.583 237.547 109.997 237.095C110.411 236.643 110.649 236.03 110.66 235.388L110.981 207.743C110.991 206.728 110.72 205.735 110.204 204.895Z" fill="#3C3C3C" fill-opacity="0.79"/>
<path d="M107.471 214.352H92.4457C92.2233 214.352 92.0035 214.405 91.8014 214.508C91.5993 214.61 91.4197 214.76 91.2749 214.946C91.1301 215.132 91.0235 215.351 90.9624 215.586C90.9013 215.822 90.8872 216.07 90.921 216.312L93.1916 232.591H106.229L108.987 216.367C109.029 216.122 109.021 215.869 108.964 215.627C108.908 215.385 108.803 215.159 108.658 214.967C108.514 214.775 108.332 214.62 108.127 214.514C107.922 214.407 107.698 214.352 107.471 214.352V214.352Z" fill="#6C63FF"/>
<path d="M106.911 68.5979H63.8352C66.8468 50.6386 66.1539 28.9521 63.8352 5.62983H106.911C104.654 28.9522 103.979 50.6387 106.911 68.5979Z" fill="#9F616A"/>
<path d="M85.6326 46.8453C91.3651 46.8453 96.0123 41.7196 96.0123 35.3966C96.0123 29.0736 91.3651 23.9478 85.6326 23.9478C79.9 23.9478 75.2529 29.0736 75.2529 35.3966C75.2529 41.7196 79.9 46.8453 85.6326 46.8453Z" fill="white"/>
<path d="M67.4681 152.174H24.3923C27.4039 134.215 26.7111 112.528 24.3923 89.2057H67.4681C65.2111 112.528 64.5366 134.215 67.4681 152.174Z" fill="#9F616A"/>
<path d="M46.1897 130.421C51.9223 130.421 56.5694 125.295 56.5694 118.972C56.5694 112.649 51.9223 107.524 46.1897 107.524C40.4572 107.524 35.81 112.649 35.81 118.972C35.81 125.295 40.4572 130.421 46.1897 130.421Z" fill="white"/>
<path d="M131.303 72.605H88.2275C91.2391 54.6457 90.5463 32.9592 88.2275 9.63689H131.303C129.046 32.9593 128.372 54.6457 131.303 72.605Z" fill="#E6E6E6"/>
<path d="M110.025 50.8524C115.757 50.8524 120.405 45.7266 120.405 39.4036C120.405 33.0807 115.757 27.9549 110.025 27.9549C104.292 27.9549 99.6452 33.0807 99.6452 39.4036C99.6452 45.7266 104.292 50.8524 110.025 50.8524Z" fill="white"/>
<path d="M131.303 69.7428H88.2275C91.2391 51.7835 90.5463 30.097 88.2275 6.7747H131.303C129.046 30.0971 128.372 51.7835 131.303 69.7428Z" fill="#E6E6E6"/>
<path d="M110.025 47.9902C115.757 47.9902 120.405 42.8644 120.405 36.5415C120.405 30.2185 115.757 25.0927 110.025 25.0927C104.292 25.0927 99.6452 30.2185 99.6452 36.5415C99.6452 42.8644 104.292 47.9902 110.025 47.9902Z" fill="white"/>
<path d="M131.303 72.605H88.2275C91.2391 54.6457 90.5463 32.9592 88.2275 9.63689H131.303C129.046 32.9593 128.372 54.6457 131.303 72.605Z" fill="#9F616A"/>
<path d="M110.025 50.8524C115.757 50.8524 120.405 45.7266 120.405 39.4036C120.405 33.0807 115.757 27.9549 110.025 27.9549C104.292 27.9549 99.6452 33.0807 99.6452 39.4036C99.6452 45.7266 104.292 50.8524 110.025 50.8524Z" fill="white"/>
<path d="M141.164 65.1633H0V82.3364H141.164V65.1633Z" fill="black"/>
<path d="M141.164 150.457H0V167.63H141.164V150.457Z" fill="black"/>
<path d="M141.164 235.75H0V252.923H141.164V235.75Z" fill="black"/>
</g>
<defs>
<clipPath id="clip0_88_677">
<rect width="352" height="379" fill="white"/>
</clipPath>
</defs>
</svg>
