<?xml version="1.0" encoding="UTF-8"?>
<!DOCTYPE svg PUBLIC "-//W3C//DTD SVG 1.1//EN" "http://www.w3.org/Graphics/SVG/1.1/DTD/svg11.dtd">
<!-- Creator: CorelDRAW 2021 (64-Bit) -->
<svg xmlns="http://www.w3.org/2000/svg" xml:space="preserve" width="44.7961mm" height="27.9386mm" version="1.1" style="shape-rendering:geometricPrecision; text-rendering:geometricPrecision; image-rendering:optimizeQuality; fill-rule:evenodd; clip-rule:evenodd"
viewBox="0 0 1012.59 631.54"
 xmlns:xlink="http://www.w3.org/1999/xlink"
 xmlns:xodm="http://www.corel.com/coreldraw/odm/2003">
 <defs>
  <style type="text/css">
   <![CDATA[
    .str0 {stroke:black;stroke-width:4.52;stroke-linecap:round;stroke-linejoin:round;stroke-miterlimit:22.9256}
    .fil0 {fill:black}
    .fil1 {fill:#6C63FF}
   ]]>
  </style>
 </defs>
 <g id="Capa_x0020_1">
  <metadata id="CorelCorpID_0Corel-Layer"/>
  <circle class="fil0" cx="308.18" cy="580.99" r="50.55"/>
  <circle class="fil0" cx="560.94" cy="580.99" r="50.55"/>
  <path class="fil0 str0" d="M2.5 69.59l65.5 0c39.54,0 67.42,9.04 87.39,45.6l45.74 83.71 312.88 -5.13c-4.53,18.93 -6.94,38.68 -6.94,59 0,83.51 40.51,157.55 102.94,203.57 -16.86,51.94 -5.77,43.83 -60.99,43.83l-226.55 -0c-49.94,0 -37.84,4.79 -61.02,-40.67l-151.42 -296.94c-15.21,-29.82 -7.33,-30.08 -39.08,-30.3l-68.69 -0.5 0.24 -62.16z"/>
  <circle class="fil1" cx="759.83" cy="252.76" r="252.76"/>
 </g>
</svg>
